<svg xmlns="http://www.w3.org/2000/svg" version="1.1" xmlns:xlink="http://www.w3.org/1999/xlink" xmlns:svgjs="http://svgjs.dev/svgjs" width="188.8" height="188.8"><svg width="188.8" height="188.8" viewBox="0 0 188.8 188.8" xmlns="http://www.w3.org/2000/svg"><path d="M0 101V74.2h14.8v24.6h59.6V64H12.6V51.6H0V12.4h12.6V0h63.8v12.4h12.4v26.8H74.4V14.4H14.8v35h61.6v12.4h12.4V101H76.4v12.6H12.6V101zm100 12.6v-27h12.6V76.2H100V61.8h12.6V51.6H100V12.4h12.6V0h51.6v12.4h10.2V0h14.4v14.4h-12.4v37.2h-12.2V64h-49.4v10.2h61.6v12.4h12.4v27h-12.4V126h-63.8v-12.4zm14.8-64.2H162v-35h-47.2zm0 61.8h59.6V88.6h-59.6z" transform="translate(0 31.4)" stroke-linecap="round" fill-rule="evenodd" font-size="12" stroke="#000" stroke-width=".945" style="stroke:#000;stroke-width:.25mm;fill:#000"></path></svg><style>@media (prefers-color-scheme: light) { :root { filter: none; } }
@media (prefers-color-scheme: dark) { :root { filter: none; } }
</style></svg>